<?xml version="1.0" encoding="utf-8"?>
<svg xmlns="http://www.w3.org/2000/svg" viewBox="0 0 500 500">
  <g id="trescuartos">
    <path style="stroke-width: 1; fill: rgb(252, 194, 255); stroke: rgb(179, 119, 182); transform-origin: 350.764px 162.111px;" d="M 245.811 269.266 L 457.298 268.546 C 456.768 192.18 431.194 131.413 358.229 85.937 C 324.015 64.613 286.157 55.159 244.229 55.694 C 244.229 55.694 244.401 127.836 245.811 269.266 Z" transform="matrix(0.999939, 0.011047, -0.011047, 0.999939, 0, 0)" id="parteunopintada"/>
    <path style="fill: rgb(255, 255, 255); stroke: rgb(207, 207, 207);" d="M 244.369 268.09 L 43.61 268.324 C 48.793 312.935 63.583 350.001 87.98 379.524 C 124.75 424.019 175.801 452.215 242.573 456.663 C 242.573 456.663 243.172 393.805 244.369 268.09 Z" id="parteenblanco"/>
    <path style="fill: rgb(252, 194, 255); stroke: rgb(179, 119, 182);" d="M 244.798 268.054 L 456.063 267.424 C 448.256 338.725 414.816 392.101 355.742 427.551 C 322.356 447.586 284.669 457.364 242.679 456.887 C 242.679 456.887 243.385 393.943 244.798 268.054 Z" id="partedospintada"/>
    <path style="stroke-width: 1; fill: rgb(252, 194, 255); stroke: rgb(179, 119, 182); transform-origin: 145.102px 162.019px;" d="M 46.318 56.478 L 245.886 55.772 C 248.601 131.816 222.744 190.958 152.181 236.444 C 119.634 257.424 83.982 268.782 44.317 268.248 C 44.317 268.248 44.983 197.658 46.318 56.478 Z" transform="matrix(-1, 0, 0, -1, -0.000007, 0.000002)" id="partetrespintada"/>
  </g>
</svg>