<?xml version="1.0" encoding="utf-8"?>
<svg xmlns="http://www.w3.org/2000/svg" viewBox="0 0 500 500">
  <g id="cuatroquintos">
    <path style="stroke-width: 1; fill: rgb(255, 255, 255); stroke: rgb(192, 192, 192); transform-origin: 233.257px 220.957px;" d="M 234.5 226.464 L 102.615 76.959 C 77.128 97.777 47.244 140.849 38.925 184.421 C 30.744 227.273 40.609 271.191 51.484 296.49 C 48.878 299.255 188.624 244.354 234.5 226.464 Z" transform="matrix(0.999863, -0.016524, 0.016524, 0.999863, 0, 0)" id="parteenblanco"/>
    <path style="stroke-width: 1; fill: rgb(244, 255, 151); stroke: rgb(196, 208, 88); transform-origin: 233.258px 220.958px;" d="M 231.603 215.138 C 232.429 216.029 93.349 359.775 92.515 358.951 C 66.408 333.161 39.615 286.962 33.805 244.417 C 28.18 203.223 40.022 164.051 48.78 147.09 C 49.938 145.83 138.329 175.659 231.603 215.138 Z" transform="matrix(-0.99957, -0.029316, 0.029316, -0.99957, 0.000008, 0.000004)" id="parteunoamarillo"/>
    <path style="fill: rgb(244, 255, 151); stroke: rgb(196, 208, 88);" d="M 234.462 226.146 L 415.54 299.529 C 381.61 373.222 321.051 411.548 233.863 414.508 C 233.863 414.508 234.063 351.721 234.462 226.146 Z" id="partedosenamarillo"/>
    <path style="fill: rgb(244, 255, 151); stroke: rgb(196, 208, 88);" d="M 234.548 225.602 L 233.389 413.549 C 153.603 413.894 93.62 375.762 53.44 299.15 C 53.44 299.15 113.809 274.634 234.548 225.602 Z" id="partetresenamarillo"/>
    <path style="fill: rgb(244, 255, 151); stroke: rgb(196, 208, 88);" d="M 233.98 225.835 C 145.035 127.722 100.563 78.666 100.563 78.666 C 186.017 6.294 297.993 12.082 377.296 86.777 C 281.752 179.483 233.98 225.835 233.98 225.835 Z" id="partecuatroenamarillo"/>
  </g>
</svg>