<?xml version="1.0" encoding="utf-8"?>
<svg xmlns="http://www.w3.org/2000/svg" viewBox="0 0 500 500">
  <g id="dostercios">
    <path style="fill: rgb(255, 255, 255); stroke: rgb(193, 193, 193);" d="M 193.584 369.713 C 143.484 330.342 120.077 285.353 123.363 234.745 C 126.07 193.06 140.34 159.067 166.175 132.766 C 200.631 97.688 242.61 79.769 292.111 79.01 L 287.421 399.18 C 247.878 397.621 216.599 387.799 193.584 369.713 Z" id="parteenblanco"/>
    <path style="fill: rgb(156, 255, 150); stroke: rgb(67, 180, 60);" d="M 290.68 234.021 L 287.735 398.944 C 334.213 403.237 378.657 386.219 420.231 348.144 C 450.044 320.842 464.047 283.466 463.651 235.506 C 463.651 235.506 406.464 234.841 290.68 234.021 Z" id="parteunopintada"/>
    <path style="fill: rgb(156, 255, 150); stroke: rgb(67, 180, 60);" d="M 290.582 233.324 L 464.003 235.358 C 464.108 200.096 450.95 166.836 424.53 135.579 C 393.553 98.931 349.506 79.89 292.389 78.458 C 292.389 78.458 291.787 130.08 290.582 233.324 Z" id="partedospintada"/>
  </g>
</svg>