<?xml version="1.0" encoding="utf-8"?>
<svg xmlns="http://www.w3.org/2000/svg" viewBox="0 0 500 500">
  <defs>
    <path id="path-0" style="fill: none;" d="M 314.894 235.918 C 316.349 233.232 316.506 231.705 317.052 230.069 C 317.637 227.741 318.292 225.91 318.598 224.235 C 319.29 222.158 320.174 220.499 320.988 218.87 C 322.415 216.935 323.092 214.951 324.128 213.502 C 325.213 211.829 326.187 210.586 327.023 209.26 C 329.038 206.241 332.998 204.497 335.338 202.31 C 337.91 200.247 339.315 198.791 340.942 197.978 C 343.371 197.191 345.68 197.475 347.776 197.275 C 352.483 196.827 357.17 196.877 361.908 196.877 C 368.41 197.42 373.096 198.631 377.388 200.431 C 381.123 203.006 384.098 205.458 386.921 208.212 C 388.759 211.155 389.975 213.74 391.366 216.29 C 393.913 219.524 395.62 222.295 397.544 225.073 C 399.746 230.001 400.504 234.929 401.338 239.307 C 402.815 245.236 402.888 249.161 403.419 253.272 C 403.419 255.546 402.84 256.933 402.633 258.59 C 402.514 260.576 402.494 263.108 401.591 264.011 L 401.53 264.234 C 400.477 265.287 399.153 266.077 398.094 267.136"/>
  </defs>
  <g id="unmedio">
    <path style="fill: rgb(255, 208, 0); stroke: rgb(234, 191, 0); stroke-width: 0.5px;" d="M 337.204 273.306 C 322.769 264.757 315.476 253.974 315.323 240.957 C 315.167 227.648 319.209 217.149 327.449 209.461 C 334.855 202.551 344.34 198.407 355.903 197.028 L 358.891 278.344 C 350.804 278.759 343.575 277.079 337.204 273.306 Z"/>
    <path style="fill: rgb(255, 255, 255); stroke: rgb(237, 237, 237); stroke-width: 0.5px;" d="M 365.505 277.65 C 361.248 278.493 358.652 278.325 358.652 278.325 C 356.696 223.786 355.826 197.196 355.826 197.196 C 373.13 197.238 388.1 203.603 396.221 219.247 C 402.058 230.494 403.975 246.105 393.555 260.304 C 386.178 270.08 376.336 275.506 365.505 277.65 Z" id="partepintada"/>
  </g>
</svg>